<?xml version="1.0" encoding="UTF-8"?><svg id="Layer_1" xmlns="http://www.w3.org/2000/svg" viewBox="0 0 540 250"><defs><style>.cls-1{fill:#fff;}.cls-2{stroke:#c1c1c0;stroke-linejoin:round;stroke-width:6px;}.cls-2,.cls-3{fill:none;}.cls-3{stroke:#917120;stroke-miterlimit:10;stroke-width:2.5px;}</style></defs><path class="cls-2" d="m326.87,113.2S469.51-19.45,470.07,17.73c0,0-11.89,105.1-111.22,87.55,0-.28-17.87,25.48-17.87,25.48,0,0-5.4,9.63-17.64,12.79,0,0-25.36,4.66-46.27,27.27,0-.21-7.77,10.53-29.86,17.96,0,0-15.75,1.8-31.26,20.62,0,0-24.84,21.68-46.28-1.88-.42-.42-19.48-3.44-65.16,21.23,0,0-13.32,7.92-25.89,7.64-.21-.42-7.85-8.7,7-17.4,0,0,63.04-33.75,94.66-26.11-.21-.21,19.9,22.07,44.15-15.92,0,0,9.85-13.65,26.74-9.13,0-.21,8.44,4.1,12.95-15.28-.21-.21,45.85-25.05,45.85-25.05,0,0,23.21,2.19,16.91-14.29Z"/><g id="Group_2773"><path id="Path_6001" class="cls-1" d="m356.21,56.36l-12.73,10.77c-.16.18-.35.34-.56.47,0,0,0,0,0,0-1.27.82-2.97.46-3.79-.82l-16.76-19.81c-.18-.16-.34-.35-.47-.56,0,0,0,0,0,0-.81-1.28-.43-2.97.85-3.78l25.55-21.62c.12-.11.25-.22.38-.32.25-.17.25-.33.05-.55-.39-.44-.74-.91-1.14-1.33-.28-.3-.27-.48.05-.74,1.03-.84,2.04-1.72,3.05-2.58.73-.6.58-.6,1.18.11l29.92,35.36c.12.15.26.28.37.43.19.27.38.25.61.04.43-.39.9-.75,1.33-1.14.25-.23.41-.25.65.03.94,1.14,1.91,2.27,2.87,3.4.2.24.23.38-.03.6-2.51,2.11-5.01,4.23-7.51,6.36-.24.2-.39.23-.61-.03-.96-1.16-1.93-2.31-2.91-3.44-.23-.27-.14-.42.09-.61.41-.33.78-.7,1.21-1s.41-.53.08-.92c-2.62-3.07-5.23-6.14-7.82-9.24-.33-.4-.51-.42-.92-.08-4.32,3.69-8.67,7.36-13,11.02m-13.71-2.3c.55-.59,1.15-1.13,1.8-1.61.7-.61,1.43-1.2,2.15-1.8,1.02,1.19,2.05,2.36,3.04,3.57.32.39.52.39.89.07,1.06-.94,2.15-1.85,3.25-2.75.3-.24.3-.4.06-.69-1.05-1.21-2.09-2.44-3.12-3.67l4.13-3.49c1.05,1.26,2.11,2.52,3.15,3.79.2.25.35.19.56.02,1.14-.97,2.28-1.94,3.44-2.91.21-.18.28-.31.08-.56-1.08-1.24-2.15-2.49-3.22-3.73,1.22-1.05,2.43-2.1,3.66-3.12.34-.28.41-.46.09-.83-.95-1.08-1.87-2.18-2.78-3.29-.24-.28-.39-.32-.69-.06-1.24,1.08-2.5,2.14-3.75,3.2-1.1-1.45-2.29-2.83-3.56-4.14.18-.05.35-.15.47-.29,1.12-.95,2.23-1.9,3.35-2.83.27-.22.38-.37.1-.69-.98-1.12-1.93-2.25-2.87-3.4-.21-.26-.36-.25-.6-.04-1.12.97-2.25,1.93-3.4,2.87-.3.25-.28.42-.04.7.89,1.03,1.76,2.07,2.63,3.11.18.14.31.34.38.56-.55.59-1.15,1.13-1.8,1.61-.71.62-1.44,1.2-2.16,1.8-1.02-1.19-2.05-2.36-3.04-3.57-.32-.39-.53-.38-.89-.06-1.07.93-2.15,1.85-3.25,2.75-.3.24-.3.4-.05.69,1.05,1.21,2.08,2.44,3.12,3.67l-4.12,3.49c-1.05-1.26-2.11-2.52-3.15-3.79-.2-.25-.35-.19-.56-.02-1.14.98-2.29,1.94-3.44,2.91-.21.17-.28.31-.08.56,1.08,1.24,2.15,2.49,3.22,3.73-1.22,1.04-2.43,2.1-3.66,3.12-.34.28-.41.46-.09.83.95,1.08,1.87,2.18,2.78,3.29.24.28.39.32.69.06,1.24-1.08,2.5-2.14,3.75-3.2,1.1,1.45,2.29,2.83,3.56,4.14-.18.05-.35.16-.47.3-1.12.94-2.22,1.9-3.36,2.83-.32.27-.31.44-.05.74.95,1.09,1.88,2.19,2.79,3.3.25.3.41.29.69.05,1.09-.95,2.18-1.88,3.3-2.79.35-.28.32-.48.05-.8-.89-1.03-1.75-2.07-2.63-3.11-.12-.15-.31-.27-.33-.51"/><path id="Path_6002" class="cls-1" d="m351.21,39.57l-4.13,3.5-3.49-4.13c1.42-1.11,2.8-2.28,4.13-3.5,1.11,1.42,2.28,2.8,3.5,4.13"/><path id="Path_6003" class="cls-1" d="m346.45,50.67c-1.11-1.42-2.28-2.8-3.5-4.13l4.13-3.49,3.49,4.13c-1.42,1.11-2.8,2.28-4.13,3.5"/><path id="Path_6004" class="cls-1" d="m339.49,42.41l3.49,4.13-4.03,3.41-3.49-4.13c1.39-1.09,2.73-2.22,4.03-3.41"/><path id="Path_6005" class="cls-1" d="m354.68,43.7l-3.49-4.13,4.03-3.41,3.49,4.13c-1.39,1.09-2.73,2.22-4.03,3.41"/></g><path id="Path_6006" class="cls-3" d="m476.17,49.36c0,7.83-6.35,14.18-14.18,14.18-7.83,0-14.18-6.35-14.18-14.18,0-7.83,6.35-14.18,14.17-14.18h0c7.83,0,14.18,6.35,14.18,14.18Z"/></svg>